<svg id="Layer_1" enable-background="new 0 0 512.05 512.05" height="512" viewBox="0 0 512.05 512.05" width="512" xmlns="http://www.w3.org/2000/svg" xmlns:xlink="http://www.w3.org/1999/xlink"><linearGradient id="SVGID_1_" gradientUnits="userSpaceOnUse" x1="0" x2="512.05" y1="256.025" y2="256.025"><stop offset="0" stop-color="#9dd6fc"/><stop offset="1" stop-color="#d17ff7"/></linearGradient><path d="m437.067 74.982c-160.842-160.519-436.804-46.204-437.018 181.021-2.838 137.596 118.392 258.848 256.001 255.996 227.235-.226 341.536-276.193 181.017-437.017zm-181.019 397.019c-119.103 0-216-96.897-216-216 11.865-286.553 420.178-286.47 432 .002 0 119.101-96.898 215.998-216 215.998zm32-358c-87.38-.512-140.273 99.482-91.412 171.127l-65.731 65.73c-7.811 7.811-7.811 20.475 0 28.285 7.81 7.81 20.474 7.81 28.284 0l65.364-65.364c71.412 51.469 173.99-1.088 173.493-89.78.002-60.652-49.344-109.998-109.998-109.998zm0 180c-38.598 0-70-31.402-70-70 3.845-92.865 136.169-92.837 140 .001 0 38.597-31.402 69.999-70 69.999z" fill="url(#SVGID_1_)"/></svg>